<svg aria-hidden="true" style="position: absolute; width: 0; height: 0; overflow: hidden;" version="1.1" xmlns="http://www.w3.org/2000/svg" xmlns:xlink="http://www.w3.org/1999/xlink">
<defs>
<symbol id="icon-in-alt" viewBox="0 0 16 16">
<path d="M15 0h-7c-0.553 0-1 0.448-1 1s0.447 1 1 1h6v12h-6c-0.553 0-1 0.448-1 1s0.447 1 1 1h7c0.553 0 1-0.448 1-1v-14c0-0.552-0.447-1-1-1zM7 12l4-4-4-4v3h-6.107c-0.494 0-0.893 0.448-0.893 1s0.4 1 0.893 1h6.107v3z"></path>
</symbol>
<symbol id="icon-home" viewBox="0 0 16 16">
<path d="M16 9.226l-8-6.21-8 6.21v-2.532l8-6.21 8 6.21zM14 9v6h-4v-4h-4v4h-4v-6l6-4.5z"></path>
</symbol>
<symbol id="icon-phone" viewBox="0 0 16 16">
<path d="M11 10c-1 1-1 2-2 2s-2-1-3-2-2-2-2-3 1-1 2-2-2-4-3-4-3 3-3 3c0 2 2.055 6.055 4 8s6 4 8 4c0 0 3-2 3-3s-3-4-4-3z"></path>
</symbol>
<symbol id="icon-mail2" viewBox="0 0 16 16">
<path d="M13.333 0h-10.666c-1.467 0-2.667 1.2-2.667 2.667v10.666c0 1.468 1.2 2.667 2.667 2.667h10.666c1.467 0 2.667-1.199 2.667-2.667v-10.666c0-1.467-1.2-2.667-2.667-2.667zM13.333 2c0.125 0 0.243 0.036 0.344 0.099l-5.678 4.694-5.677-4.694c0.101-0.063 0.219-0.099 0.344-0.099h10.666zM2.667 14c-0.030 0-0.060-0.002-0.089-0.006l3.525-4.89-0.457-0.457-3.646 3.646v-9.549l6 7.256 6-7.256v9.549l-3.646-3.646-0.457 0.457 3.525 4.89c-0.029 0.004-0.059 0.006-0.088 0.006h-10.666z"></path>
</symbol>
</defs>
</svg>
