<svg version="1" xmlns="http://www.w3.org/2000/svg" width="400" height="400" viewBox="0 0 300.000000 300.000000"><path d="M84.1 96.2c-6.3 2.4-9.7 6.1-21.9 23.3C51.6 134.7 13.5 188.4 6 199l-4.7 6.5h62.8c34.5 0 63-.2 63.2-.5.3-.3-3.6-6.6-8.7-14l-9.2-13.5-24.2-.1c-13.3 0-24.3-.3-24.5-.6-.2-.6 7.1-11.3 24.6-36.1l6.9-9.9 2.6 3.9c1.4 2.1 3 4.2 3.4 4.8.5.5 6.1 8.4 12.4 17.5 6.3 9.1 12.1 17.2 12.8 18.1.7.9 1.5 2.1 1.7 2.6.2.6 1.4 2.3 2.6 3.9 1.3 1.6 5.6 7.6 9.7 13.4l7.4 10.6 61.8-.2c66.9-.1 65.6 0 73.7-5.5 15.5-10.5 20-32.3 9.9-48.3-4.3-6.9-13.6-13.8-20.4-15-1.3-.3-2.3-.5-2.3-.6 0-.1-17.7-.3-39.3-.4l-39.4-.1-1.9-2.4c-2.5-3-2.4-4.7.4-7.5 2.2-2.2 2.7-2.3 23.2-2.2 17.2.1 21.2-.2 22.6-1.4.9-.8 4.7-5.6 8.5-10.5 3.8-5 7.1-9.2 7.4-9.5.8-.7 5-6.7 5-7.2 0-.2-16.8-.3-37.2-.2-40.8.1-41.3.2-50.1 6.3-5.5 3.8-7.8 6.5-11.3 13.6-2.5 5.2-2.8 7-2.8 14.5.1 7 .5 9.4 2.7 14 4.6 9.7 13.8 17.3 23.7 19.6 1.9.4 20.4.8 41 .9 22.3 0 38.2.5 39.1 1 4.3 2.6 4 10.7-.4 12.1-1.2.4-22.7.8-47.8.8l-45.6.1-18.4-25.4c-10.1-13.9-19.2-26.3-20.1-27.4-1-1.1-1.8-2.3-1.8-2.7 0-.3-.8-1.5-1.8-2.6-.9-1-3.9-4.9-6.5-8.7-8.4-11.8-12.2-14.5-21.9-15.6-4.4-.6-6.9-.3-10.7 1.1z"/><path d="M256.8 99.4c-2.1 2.8-4.5 5.8-5.1 6.6-5.3 6.8-12.7 16.7-12.7 17.1 0 .3 1.8.5 4 .4 4-.1 4.2-.3 14.5-14 5.8-7.6 10.5-14.1 10.5-14.5 0-.4-1.6-.7-3.6-.7-3.2 0-4.1.7-7.6 5.1zM269.4 100.7c-2.5 3.5-5.1 6.9-5.8 7.6-3 3.1-10.5 14.1-10.1 14.7.7 1.1 7.9 0 8.7-1.3.3-.7 4.9-6.8 10.2-13.7 5.2-6.8 9.3-12.7 9-13-.3-.3-2.1-.5-3.9-.5-3-.1-3.9.6-8.1 6.2zM278.7 106.4c-5 6.6-9.8 12.8-10.6 13.8-2.2 2.5-1.7 3.2 2.5 3.3 2.7 0 4.1-.5 5.6-2.5 10.5-13.4 19.6-26 19-26.1-.4-.1-2.2-.2-4.1-.3-3.1-.2-3.8.4-12.4 11.8z"/></svg>